<?xml version="1.0" standalone="no"?>
<!DOCTYPE svg PUBLIC "-//W3C//DTD SVG 20010904//EN"
 "http://www.w3.org/TR/2001/REC-SVG-20010904/DTD/svg10.dtd">
<svg version="1.0" xmlns="http://www.w3.org/2000/svg"
 width="2048.000000pt" height="2048.000000pt" viewBox="0 0 2048.000000 2048.000000"
 preserveAspectRatio="xMidYMid meet">
<metadata>
Created by potrace 1.14, written by Peter Selinger 2001-2017
</metadata>
<g transform="translate(0.000000,2048.000000) scale(0.100000,-0.100000)"
fill="#000000" stroke="none">
<path d="M0 10240 l0 -10240 10240 0 10240 0 0 10240 0 10240 -10240 0 -10240
0 0 -10240z m7690 3137 c0 -1721 -3 -2579 -11 -2653 -71 -729 -453 -1246
-1081 -1462 -250 -87 -490 -122 -829 -122 -510 0 -871 64 -1191 212 l-88 41 0
398 0 398 115 -39 c280 -94 579 -153 868 -172 460 -30 781 70 973 302 103 125
180 332 203 548 8 72 11 841 11 2597 l0 2495 515 0 515 0 0 -2543z m2574 -40
c330 -1420 602 -2588 604 -2595 3 -7 11 -12 20 -10 11 2 199 659 713 2483 384
1364 703 2497 709 2518 l11 37 464 0 464 0 10 -37 c242 -884 1380 -4996 1385
-5000 3 -4 9 -3 13 0 3 4 281 1171 617 2595 l611 2587 463 3 462 2 -7 -27 c-4
-16 -378 -1526 -833 -3358 l-826 -3330 -494 0 -493 0 -696 2543 c-547 2003
-698 2542 -710 2542 -13 0 -172 -555 -731 -2545 l-715 -2545 -492 0 -492 0
-10 38 c-6 20 -384 1526 -841 3347 -456 1821 -832 3316 -835 3323 -3 9 103 12
513 12 l517 0 599 -2583z m3578 -6202 c207 -36 387 -126 528 -265 219 -214
324 -483 350 -895 39 -624 -129 -1078 -490 -1322 -187 -126 -447 -192 -715
-179 -493 22 -827 263 -989 714 -14 41 -38 131 -53 200 -26 121 -27 141 -28
417 0 303 6 360 55 535 128 463 466 757 930 809 108 12 300 6 412 -14z
m-10262 -165 l0 -150 -385 0 -385 0 0 -1155 0 -1155 -167 2 -168 3 -3 1153 -2
1152 -385 0 -385 0 0 143 c0 79 3 147 7 150 3 4 426 7 940 7 l933 0 0 -150z
m1798 -2 l3 -148 -606 0 -605 0 0 -410 0 -410 465 0 465 0 0 -145 0 -145 -465
0 -465 0 0 -455 0 -455 610 0 610 0 0 -145 0 -145 -780 0 -780 0 0 1305 0
1305 773 -2 772 -3 3 -147z m1258 142 c521 -40 769 -296 752 -775 -6 -147 -32
-245 -93 -345 -67 -110 -195 -214 -328 -268 -49 -20 -67 -31 -64 -43 3 -9 155
-272 338 -584 184 -313 336 -572 337 -577 2 -4 -84 -8 -191 -8 l-194 0 -314
550 -314 550 -232 0 -233 0 0 -550 0 -550 -170 0 -170 0 0 1305 0 1305 373 0
c204 0 431 -5 503 -10z m2050 0 c521 -40 769 -296 752 -775 -6 -147 -32 -245
-93 -345 -67 -110 -195 -214 -328 -268 -49 -20 -67 -31 -64 -43 3 -9 155 -272
338 -584 184 -313 336 -572 337 -577 2 -4 -84 -8 -191 -8 l-194 0 -314 550
-314 550 -232 0 -233 0 0 -550 0 -550 -170 0 -170 0 0 1305 0 1305 373 0 c204
0 431 -5 503 -10z m1524 -1295 l0 -1305 -170 0 -170 0 0 1305 0 1305 170 0
170 0 0 -1305z m2130 1155 l0 -150 -385 0 -385 0 0 -1155 0 -1155 -167 2 -168
3 -3 1153 -2 1152 -385 0 -385 0 0 143 c0 79 3 147 7 150 3 4 426 7 940 7
l933 0 0 -150z m3586 140 c521 -40 769 -296 752 -775 -6 -147 -32 -245 -93
-345 -67 -110 -195 -214 -328 -268 -49 -20 -67 -31 -64 -43 3 -9 155 -272 338
-584 184 -313 336 -572 337 -577 2 -4 -84 -8 -191 -8 l-194 0 -314 550 -314
550 -232 0 -233 0 0 -550 0 -550 -170 0 -170 0 0 1305 0 1305 373 0 c204 0
431 -5 503 -10z m1597 -629 c183 -349 336 -635 342 -635 5 -1 156 285 335 634
l327 635 167 3 167 2 -27 -52 c-15 -29 -204 -389 -420 -800 l-394 -747 0 -506
0 -505 -172 2 -173 3 -3 507 -2 507 -416 782 c-229 430 -418 788 -421 796 -4
11 26 13 176 11 l182 -3 332 -634z"/>
<path d="M13490 6870 c-163 -16 -296 -72 -402 -170 -212 -194 -301 -502 -282
-975 24 -595 229 -901 645 -966 90 -14 261 -6 344 15 303 80 497 335 550 726
17 124 20 439 4 578 -28 259 -102 449 -229 585 -109 116 -259 189 -417 202
-37 3 -84 7 -103 9 -19 2 -69 0 -110 -4z"/>
<path d="M6100 6349 l0 -472 273 6 c297 6 353 15 455 66 146 74 211 224 199
460 -12 244 -117 361 -358 400 -35 6 -178 11 -316 11 l-253 0 0 -471z"/>
<path d="M8150 6349 l0 -472 273 6 c297 6 353 15 455 66 146 74 211 224 199
460 -12 244 -117 361 -358 400 -35 6 -178 11 -316 11 l-253 0 0 -471z"/>
<path d="M15390 6349 l0 -472 273 6 c297 6 353 15 455 66 146 74 211 224 199
460 -12 244 -117 361 -358 400 -35 6 -178 11 -316 11 l-253 0 0 -471z"/>
</g>
</svg>
